<svg xmlns="http://www.w3.org/2000/svg" width="847" height="856" viewBox="0 0 847 856">
<rect width="100%" height="100%" fill="#FAB71E" />
<g>
<path d="M 365.50 572.00 C360.84,574.16 360.00,574.33 360.00,573.10 C360.00,572.07 365.50,569.96 367.90,570.07 C368.78,570.11 367.70,570.98 365.50,572.00 Z" fill="rgb(219,193,135)"/>
<path d="M 0.00 0.00 L 847.00 0.00 L 847.00 856.00 L 0.00 856.00 ZM 252.00 579.11 L 252.00 608.00 L 300.25 608.00 C348.37,608.00 348.53,607.99 359.00,605.48 C393.47,597.21 420.58,570.30 429.59,535.43 C431.75,527.04 432.17,523.17 432.24,510.50 C432.32,497.21 432.02,494.37 429.65,485.63 C426.34,473.37 420.83,461.60 414.19,452.59 C411.49,448.92 410.06,447.17 409.99,445.36 C409.91,443.52 411.23,441.63 414.00,437.62 C414.25,437.27 414.51,436.89 414.78,436.50 C419.47,429.72 424.16,419.23 427.08,409.00 C429.22,401.47 429.50,398.56 429.46,383.50 C429.43,369.01 429.09,365.25 427.14,358.04 C423.91,346.10 420.64,338.76 414.24,329.10 C401.89,310.46 387.43,299.27 365.03,291.01 C352.88,286.53 345.68,286.00 296.93,286.00 L 252.00 286.00 L 252.00 315.86 L 300.75 316.20 C334.53,316.43 350.27,316.88 352.00,317.67 C353.38,318.30 356.98,319.81 360.00,321.02 C366.37,323.58 376.87,330.73 382.16,336.10 C387.56,341.59 392.92,350.45 396.30,359.50 C398.81,366.22 399.37,369.39 399.77,379.28 C400.45,396.05 397.95,407.30 390.72,420.00 C386.36,427.66 373.65,440.14 367.20,443.10 C364.34,444.41 362.00,445.80 362.00,446.19 C362.00,446.57 364.81,448.35 368.25,450.14 C372.37,452.29 377.57,456.48 383.50,462.45 C393.53,472.53 397.41,479.18 401.08,492.56 C402.95,499.38 403.18,502.18 402.73,512.98 C402.01,530.09 398.34,540.67 388.80,553.09 C382.51,561.28 376.00,566.80 366.85,571.32 C368.10,570.62 368.57,570.11 367.90,570.07 C365.50,569.96 360.00,572.07 360.00,573.10 C360.00,573.92 360.38,574.12 362.03,573.51 C359.69,574.48 357.19,575.42 354.50,576.34 C348.84,578.27 345.74,578.41 300.25,578.75 ZM 526.75 607.42 C527.16,607.84 538.08,607.97 551.00,607.73 C571.51,607.34 575.96,606.96 586.00,604.73 C600.40,601.52 609.50,598.26 623.50,591.28 C648.19,578.96 669.31,560.14 685.28,536.21 C699.32,515.18 707.49,493.32 711.03,467.25 C712.73,454.74 711.73,426.71 709.13,414.00 C697.74,358.39 658.69,313.61 605.50,295.18 C587.03,288.78 568.02,286.02 542.22,286.01 L 525.95 286.00 L 526.50 315.50 L 548.50 316.14 C581.25,317.09 592.52,319.75 616.50,332.19 C626.17,337.21 631.27,341.05 642.26,351.56 C663.00,371.40 675.76,394.68 680.60,421.50 C684.57,443.49 682.37,472.57 675.31,491.50 C669.21,507.83 663.35,517.96 652.62,530.67 C637.83,548.20 628.23,555.78 608.50,565.49 C588.18,575.49 570.86,579.00 541.78,579.00 L 526.00 579.00 L 526.00 592.83 C526.00,600.44 526.34,607.01 526.75,607.42 ZM 526.49 568.15 C526.76,568.42 530.69,568.50 535.24,568.34 C539.78,568.17 550.47,567.85 559.00,567.64 C574.01,567.26 574.90,567.12 587.00,563.10 C604.39,557.32 613.79,552.39 626.14,542.54 C638.56,532.64 643.07,527.79 651.27,515.50 C666.55,492.60 672.26,473.56 672.25,445.50 C672.24,432.86 671.84,428.84 669.69,419.96 C662.79,391.44 650.87,371.92 628.50,352.53 C624.12,348.74 607.42,338.57 600.73,335.63 C585.55,328.95 568.28,326.04 543.75,326.02 L 526.00 326.00 L 526.00 356.00 L 543.25 356.01 C552.74,356.01 563.42,356.47 567.00,357.03 C580.53,359.14 597.30,365.92 606.00,372.79 C610.94,376.70 624.43,390.13 627.33,394.04 C630.72,398.60 636.10,410.13 639.14,419.35 C645.94,439.96 643.29,470.54 633.03,489.79 C630.18,495.13 621.20,506.92 615.14,513.26 C611.14,517.45 600.13,525.44 594.39,528.33 C586.64,532.22 572.34,536.82 564.50,537.95 C560.65,538.51 550.41,538.97 541.75,538.98 L 526.00 539.00 L 526.00 553.33 C526.00,561.22 526.22,567.89 526.49,568.15 ZM 486.69 607.36 C487.07,607.74 493.71,607.93 501.44,607.78 L 515.50 607.50 L 515.77 449.00 C515.92,361.83 515.80,289.49 515.50,288.25 C514.97,286.05 514.67,286.00 500.48,286.00 L 486.00 286.00 L 486.00 446.33 C486.00,534.52 486.31,606.98 486.69,607.36 ZM 172.00 286.14 L 172.00 608.05 L 201.50 607.50 L 201.50 286.50 ZM 447.00 285.95 L 447.00 608.00 L 476.01 608.00 L 475.75 447.25 L 475.50 286.50 L 461.25 286.22 ZM 212.50 286.50 L 211.99 608.00 L 225.94 608.00 C233.61,608.00 240.13,607.59 240.44,607.10 C240.86,606.41 241.25,400.98 241.03,298.22 L 241.00 285.95 L 226.75 286.22 ZM 252.42 568.08 C252.64,568.31 273.91,568.38 299.67,568.23 C349.51,567.94 351.69,567.75 361.45,562.77 C375.45,555.63 385.22,543.97 390.57,528.00 C393.18,520.20 393.20,500.69 390.61,493.00 C385.30,477.26 375.12,465.20 361.56,458.62 C349.02,452.53 344.41,452.07 295.25,452.03 L 252.00 452.00 L 252.00 481.89 L 297.75 482.19 C336.80,482.46 345.23,482.28 350.64,486.23 C352.47,487.57 353.96,489.39 356.17,491.85 C361.39,497.65 363.00,502.26 363.00,511.41 C363.00,521.69 357.13,531.12 347.50,536.33 C343.59,538.45 342.48,538.51 297.75,538.80 L 252.00 539.09 L 252.00 553.38 C252.00,561.24 252.19,567.85 252.42,568.08 ZM 252.00 412.00 L 252.00 442.09 L 298.25 441.78 C342.54,441.48 344.77,441.38 350.83,439.32 C358.89,436.57 369.49,429.47 375.56,422.75 C381.72,415.92 387.49,403.94 389.04,394.77 C390.53,385.96 389.84,372.55 387.49,364.50 C384.08,352.81 374.11,340.37 362.59,333.43 C351.45,326.72 350.68,326.63 298.75,326.24 L 252.00 325.89 L 252.00 356.00 L 295.25 356.01 C321.96,356.01 339.92,356.41 342.22,357.05 C352.12,359.79 359.18,369.45 359.84,381.13 C360.38,390.69 358.01,397.64 352.09,403.81 C350.39,405.59 349.06,406.97 347.51,408.06 C341.93,412.00 333.57,412.00 294.90,412.00 Z" fill="rgb(218,173,85)"/>
<path d="M 369.42 441.87 C366.36,443.97 364.00,446.00 364.00,446.58 C364.00,447.07 365.75,448.51 368.21,450.12 C364.79,448.34 362.00,446.57 362.00,446.19 C362.00,445.80 364.34,444.41 367.20,443.10 C367.88,442.79 368.62,442.38 369.42,441.87 ZM 387.11 425.20 C382.60,431.39 377.08,436.74 370.84,440.93 C375.95,437.33 382.59,430.89 387.11,425.20 ZM 372.24 452.62 C380.62,458.14 391.36,469.69 395.50,477.75 C392.71,472.56 389.05,468.03 383.50,462.45 C379.35,458.27 375.55,454.96 372.24,452.62 ZM 399.25 371.19 C399.48,373.32 399.64,375.78 399.77,378.91 C400.09,386.20 399.81,392.28 398.85,397.88 C399.79,392.30 400.05,386.27 399.77,379.28 C399.64,375.95 399.48,373.39 399.25,371.19 Z" fill="rgb(246,233,205)"/>
<path d="M 172.00 447.09 L 172.00 286.14 L 186.75 286.32 L 201.50 286.50 L 201.50 447.00 L 201.50 607.50 L 186.75 607.78 L 172.00 608.05 L 172.00 447.09 ZM 212.25 447.25 L 212.50 286.50 L 226.75 286.22 L 241.00 285.95 L 241.03 298.22 C241.25,400.98 240.86,606.41 240.44,607.10 C240.13,607.59 233.61,608.00 225.94,608.00 L 211.99 608.00 L 212.25 447.25 ZM 252.00 593.55 L 252.00 579.11 L 300.25 578.75 C345.74,578.41 348.84,578.27 354.50,576.34 C370.79,570.78 380.01,564.53 388.80,553.09 C398.34,540.67 402.01,530.09 402.73,512.98 C403.18,502.18 402.95,499.38 401.08,492.56 C399.89,488.21 397.47,481.72 395.70,478.15 C391.46,469.55 379.30,456.69 370.62,451.61 C366.98,449.48 364.00,447.22 364.00,446.58 C364.00,445.94 366.88,443.53 370.39,441.22 C381.25,434.08 389.97,423.39 395.06,410.96 C398.98,401.40 400.34,392.14 399.77,378.91 C399.37,369.47 398.77,366.12 396.30,359.50 C392.92,350.45 387.57,341.59 382.16,336.10 C376.87,330.73 366.37,323.58 360.00,321.02 C356.98,319.81 353.38,318.30 352.00,317.67 C350.27,316.88 334.53,316.43 300.75,316.20 L 252.00 315.86 L 252.00 300.93 L 252.00 286.00 L 296.93 286.00 C345.68,286.00 352.88,286.53 365.03,291.01 C387.43,299.27 401.89,310.46 414.24,329.10 C420.64,338.76 423.91,346.10 427.14,358.04 C429.09,365.25 429.43,369.01 429.46,383.50 C429.50,398.56 429.22,401.47 427.08,409.00 C424.16,419.23 419.47,429.72 414.78,436.50 C408.47,445.62 408.50,444.87 414.19,452.59 C420.83,461.60 426.34,473.37 429.65,485.63 C432.02,494.37 432.32,497.21 432.24,510.50 C432.17,523.17 431.75,527.04 429.59,535.43 C420.58,570.30 393.47,597.21 359.00,605.48 C348.53,607.99 348.37,608.00 300.25,608.00 L 252.00 608.00 L 252.00 593.55 ZM 447.00 446.97 L 447.00 285.95 L 461.25 286.22 L 475.50 286.50 L 475.75 447.25 L 476.01 608.00 L 461.50 608.00 L 447.00 608.00 L 447.00 446.97 ZM 486.69 607.36 C486.31,606.98 486.00,534.52 486.00,446.33 L 486.00 286.00 L 500.48 286.00 C514.67,286.00 514.97,286.05 515.50,288.25 C515.80,289.49 515.92,361.83 515.77,449.00 L 515.50 607.50 L 501.44 607.78 C493.71,607.93 487.07,607.74 486.69,607.36 ZM 526.75 607.42 C526.34,607.01 526.00,600.44 526.00,592.83 L 526.00 579.00 L 541.78 579.00 C570.86,579.00 588.18,575.49 608.50,565.49 C628.23,555.78 637.83,548.20 652.62,530.67 C663.35,517.96 669.21,507.83 675.31,491.50 C682.37,472.57 684.57,443.49 680.60,421.50 C675.76,394.68 663.00,371.40 642.26,351.56 C631.27,341.05 626.17,337.21 616.50,332.19 C592.52,319.75 581.25,317.09 548.50,316.14 L 526.50 315.50 L 526.22 300.75 L 525.95 286.00 L 542.22 286.01 C568.02,286.02 587.03,288.78 605.50,295.18 C658.69,313.61 697.74,358.39 709.13,414.00 C711.73,426.71 712.73,454.74 711.03,467.25 C707.49,493.32 699.32,515.18 685.28,536.21 C669.31,560.14 648.19,578.96 623.50,591.28 C609.50,598.26 600.40,601.52 586.00,604.73 C575.96,606.96 571.51,607.34 551.00,607.73 C538.08,607.97 527.16,607.84 526.75,607.42 ZM 252.42 568.08 C252.19,567.85 252.00,561.24 252.00,553.38 L 252.00 539.09 L 297.75 538.80 C342.48,538.51 343.59,538.45 347.50,536.33 C357.13,531.12 363.00,521.69 363.00,511.41 C363.00,502.26 361.39,497.65 356.17,491.85 C347.42,482.11 350.03,482.54 297.75,482.19 L 252.00 481.89 L 252.00 466.94 L 252.00 452.00 L 295.25 452.03 C344.41,452.07 349.02,452.53 361.56,458.62 C375.12,465.20 385.30,477.26 390.61,493.00 C393.20,500.69 393.18,520.20 390.57,528.00 C385.22,543.97 375.45,555.63 361.45,562.77 C351.69,567.75 349.51,567.94 299.67,568.23 C273.91,568.38 252.64,568.31 252.42,568.08 ZM 526.49 568.15 C526.22,567.89 526.00,561.22 526.00,553.33 L 526.00 539.00 L 541.75 538.98 C550.41,538.97 560.65,538.51 564.50,537.95 C572.34,536.82 586.64,532.22 594.39,528.33 C600.13,525.44 611.14,517.45 615.14,513.26 C621.20,506.92 630.18,495.13 633.03,489.79 C643.29,470.54 645.94,439.96 639.14,419.35 C636.10,410.13 630.72,398.60 627.33,394.04 C624.43,390.13 610.94,376.70 606.00,372.79 C597.30,365.92 580.53,359.14 567.00,357.03 C563.42,356.47 552.74,356.01 543.25,356.01 L 526.00 356.00 L 526.00 341.00 L 526.00 326.00 L 543.75 326.02 C568.28,326.04 585.55,328.95 600.73,335.63 C607.42,338.57 624.12,348.74 628.50,352.53 C650.87,371.92 662.79,391.44 669.69,419.96 C671.84,428.84 672.24,432.86 672.25,445.50 C672.26,473.56 666.55,492.60 651.27,515.50 C643.07,527.79 638.56,532.64 626.14,542.54 C613.79,552.39 604.39,557.32 587.00,563.10 C574.90,567.12 574.01,567.26 559.00,567.64 C550.47,567.85 539.78,568.17 535.24,568.34 C530.69,568.50 526.76,568.42 526.49,568.15 ZM 252.00 427.05 L 252.00 412.00 L 294.82 412.00 C344.26,412.00 344.23,412.00 352.09,403.81 C358.01,397.64 360.38,390.69 359.84,381.13 C359.18,369.45 352.12,359.79 342.22,357.05 C339.92,356.41 321.96,356.01 295.25,356.01 L 252.00 356.00 L 252.00 340.95 L 252.00 325.89 L 298.75 326.24 C350.68,326.63 351.45,326.72 362.59,333.43 C374.11,340.37 384.08,352.81 387.49,364.50 C389.84,372.55 390.53,385.96 389.04,394.77 C387.49,403.94 381.72,415.92 375.56,422.75 C369.49,429.47 358.89,436.57 350.83,439.32 C344.77,441.38 342.54,441.48 298.25,441.78 L 252.00 442.09 L 252.00 427.05 Z" fill="rgb(254,253,251)"/>
</g>
</svg>